<?xml version="1.0" encoding="UTF-8" standalone="no"?>
<!-- Created with Inkscape (http://www.inkscape.org/) -->

<svg
   width="166.88751mm"
   height="59.145668mm"
   viewBox="0 0 166.88751 59.145668"
   version="1.1"
   id="svg2442"
   xml:space="preserve"
   xmlns:xlink="http://www.w3.org/1999/xlink"
   xmlns="http://www.w3.org/2000/svg"
   xmlns:svg="http://www.w3.org/2000/svg"><defs
     id="defs2439"><linearGradient
       id="linearGradient132536"><stop
         style="stop-color:#8a8a8a;stop-opacity:1;"
         offset="0"
         id="stop132532" /><stop
         style="stop-color:#ffffff;stop-opacity:1;"
         offset="0.45858577"
         id="stop132534" /></linearGradient><linearGradient
       id="linearGradient15287"><stop
         style="stop-color:#fcff47;stop-opacity:1;"
         offset="0.29985452"
         id="stop15283" /><stop
         style="stop-color:#e09300;stop-opacity:1;"
         offset="1"
         id="stop15285" /></linearGradient><linearGradient
       xlink:href="#linearGradient15287"
       id="linearGradient15289"
       x1="40.634892"
       y1="54.367661"
       x2="173.8252"
       y2="199.00044"
       gradientUnits="userSpaceOnUse"
       gradientTransform="matrix(0.39010233,0,0,0.39010233,72.423311,62.885041)"
       spreadMethod="pad" /><linearGradient
       xlink:href="#linearGradient132536"
       id="linearGradient132538"
       x1="120.26904"
       y1="103.19216"
       x2="119.75906"
       y2="84.122612"
       gradientUnits="userSpaceOnUse"
       gradientTransform="translate(-4.3820152,17.06062)" /><filter
       style="color-interpolation-filters:sRGB"
       id="filter145306"
       x="-0.006787295"
       y="-0.05712077"
       width="1.0141823"
       height="1.1346989"><feFlood
         flood-opacity="1"
         flood-color="rgb(69,69,69)"
         result="flood"
         id="feFlood145296" /><feComposite
         in="flood"
         in2="SourceGraphic"
         operator="in"
         result="composite1"
         id="feComposite145298" /><feGaussianBlur
         in="composite1"
         stdDeviation="0.3"
         result="blur"
         id="feGaussianBlur145300" /><feOffset
         dx="0.1"
         dy="0.4"
         result="offset"
         id="feOffset145302" /><feComposite
         in="offset"
         in2="offset"
         operator="atop"
         result="composite2"
         id="feComposite145304" /></filter><filter
       style="color-interpolation-filters:sRGB"
       id="filter145318"
       x="-0.024673138"
       y="-0.022930015"
       width="1.0665338"
       height="1.0445834"><feFlood
         flood-opacity="1"
         flood-color="rgb(69,69,69)"
         result="flood"
         id="feFlood145308" /><feComposite
         in="flood"
         in2="SourceGraphic"
         operator="in"
         result="composite1"
         id="feComposite145310" /><feGaussianBlur
         in="composite1"
         stdDeviation="0.3"
         result="blur"
         id="feGaussianBlur145312" /><feOffset
         dx="0.1"
         dy="0.4"
         result="offset"
         id="feOffset145314" /><feComposite
         in="offset"
         in2="offset"
         operator="atop"
         result="composite2"
         id="feComposite145316" /></filter></defs><g
     id="layer1"
     transform="translate(-29.917664,-82.771566)"><path
       id="path140499"
       style="font-style:normal;font-variant:normal;font-weight:normal;font-stretch:normal;font-size:27.2968px;font-family:'SF Pro';-inkscape-font-specification:'SF Pro';fill:#c98f70;fill-opacity:1;stroke:#af0e0e;stroke-width:0.79375;stroke-dasharray:none;stroke-opacity:1;filter:url(#filter145306)"
       d="m 31.034539,100.88855 v 19.23294 h 11.915552 v -2.15904 h -9.516732 v -6.61097 h 9.023739 v -2.13268 h -9.023739 v -6.1712 h 9.516732 v -2.15905 z m 15.074532,0 v 19.23294 h 2.23914 v -14.86111 h 0.08062 l 6.143811,14.86111 h 2.025717 l 6.143811,-14.86111 h 0.08062 v 14.86111 h 2.23914 v -19.23294 h -2.771924 l -6.66471,16.20728 h -0.07958 l -6.664204,-16.20728 z m 28.309383,0 -7.157185,19.23294 h 2.519226 l 1.951302,-5.50457 h 7.737512 l 1.946651,5.50457 h 2.519226 l -7.144267,-19.23294 h -0.599446 -0.559656 z m 10.130131,0 6.477641,9.51622 v 0.0579 l -6.557739,9.65884 h 2.718697 l 5.190381,-7.67705 h 0.07441 l 5.118553,7.67705 h 2.878892 l -6.504512,-9.54205 v -0.0543 l 6.650762,-9.63663 h -2.732142 l -5.198646,7.74372 h -0.07958 l -5.144905,-7.74372 z m 18.513075,0 v 19.23294 h 1.19941 1.19993 4.86482 c 1.36839,0 2.53667,-0.21324 3.50521,-0.63975 0.96854,-0.4354 1.71034,-1.05289 2.22571,-1.85261 0.52425,-0.80859 0.78651,-1.77728 0.78651,-2.90576 v -0.0264 c 0,-0.85302 -0.17736,-1.61302 -0.53278,-2.27944 -0.35543,-0.67531 -0.86682,-1.2261 -1.53324,-1.65262 -0.66643,-0.42651 -1.46128,-0.69332 -2.38539,-0.79995 v -0.0532 c 0.66643,-0.0977 1.26169,-0.35091 1.78594,-0.75965 0.52426,-0.41762 0.93709,-0.9285 1.2392,-1.53272 0.30212,-0.60423 0.4532,-1.2394 0.4532,-1.90583 v -0.0269 c 0,-0.95965 -0.23092,-1.79949 -0.69298,-2.51923 -0.46205,-0.71973 -1.10633,-1.27962 -1.93269,-1.67948 -0.82637,-0.39985 -1.79051,-0.59945 -2.89233,-0.59945 h -4.89118 -1.19993 z m 38.89272,0 v 12.48865 c 0,1.39505 0.30621,2.626 0.91932,3.69228 0.61312,1.0574 1.48884,1.88358 2.6262,2.47892 1.14625,0.59534 2.51464,0.89297 4.10518,0.89297 1.59053,0 2.95437,-0.29763 4.09174,-0.89297 1.13736,-0.59534 2.00801,-1.42152 2.61224,-2.47892 0.61311,-1.06628 0.91984,-2.29723 0.91984,-3.69228 v -12.48865 h -2.39934 v 12.32897 c 0,0.98631 -0.20414,1.85696 -0.61288,2.61224 -0.40874,0.7464 -1.004,1.33255 -1.78594,1.75907 -0.77305,0.42651 -1.71495,0.63975 -2.82566,0.63975 -1.11071,0 -2.05717,-0.21324 -2.83911,-0.63975 -0.78194,-0.42652 -1.38174,-1.01267 -1.79937,-1.75907 -0.40874,-0.75528 -0.6134,-1.62593 -0.6134,-2.61224 v -12.32897 z m 19.00659,0 v 19.23294 h 2.37247 V 104.9405 h 0.0708 l 10.57869,15.18099 h 2.33215 v -19.23294 h -2.37246 v 15.18099 h -0.0708 l -10.57869,-15.18099 z m 19.08618,0 v 19.23294 h 6.4642 c 1.91042,0 3.54107,-0.37746 4.89169,-1.13275 1.35062,-0.76416 2.38602,-1.86626 3.10576,-3.30574 0.71973,-1.43948 1.07952,-3.16765 1.07952,-5.1847 v -0.0269 c 0,-2.01704 -0.36434,-3.73612 -1.09296,-5.15782 -0.71974,-1.4306 -1.75513,-2.52359 -3.10575,-3.27887 -1.35063,-0.76417 -2.97673,-1.14619 -4.87826,-1.14619 z M 105.461,103.0078 h 4.34496 c 1.16402,0 2.06146,0.25317 2.69234,0.75965 0.63088,0.4976 0.94619,1.22171 0.94619,2.17248 v 0.0269 c 0,1.03962 -0.37746,1.83447 -1.13274,2.38538 -0.7464,0.55091 -1.8303,0.82682 -3.252,0.82682 H 105.461 Z m 76.98548,0.0398 h 3.90519 c 1.45725,0 2.68768,0.28904 3.69177,0.86661 1.01296,0.56868 1.78154,1.408 2.3058,2.51871 0.52425,1.11071 0.78651,2.46596 0.78651,4.06538 v 0.0269 c 0,1.59053 -0.26226,2.94072 -0.78651,4.05143 -0.52426,1.10182 -1.29284,1.94166 -2.3058,2.51922 -1.00409,0.57757 -2.23452,0.86662 -3.69177,0.86662 h -3.90519 z m -106.868406,0.71985 h 0.05374 l 3.116089,8.81031 h -6.293156 z m 29.882926,7.47706 h 4.27829 c 1.02185,0 1.87482,0.12482 2.55902,0.37362 0.69308,0.2488 1.21305,0.62172 1.55959,1.11931 0.34655,0.4976 0.51987,1.11964 0.51987,1.86604 v 0.0269 c 0,1.10182 -0.37798,1.94114 -1.13326,2.51871 -0.7464,0.56868 -1.8394,0.85318 -3.27887,0.85318 H 105.461 Z" /><path
       id="path140497"
       style="fill:#c98f70;fill-opacity:1;stroke:#af0e0e;stroke-width:0.79375;stroke-dasharray:none;stroke-opacity:1;filter:url(#filter145318)"
       d="m 88.335918,84.070508 1.458307,2.671275 a 79.987524,79.987524 0 0 1 50.161265,53.949397 72.417407,72.417407 0 0 0 -7.23106,-20.88664 10.31516,10.31516 0 0 0 0.0999,-0.0528 l 3.06077,2.3576 -1.31137,-3.6381 a 10.31516,10.31516 0 0 0 2.02096,-2.50013 l 3.82944,0.51143 -2.95473,-2.4951 a 10.31516,10.31516 0 0 0 0.50055,-3.16155 10.31516,10.31516 0 0 0 -2e-4,-0.0146 l 3.57179,-1.47183 -3.80282,-0.68258 a 10.31516,10.31516 0 0 0 -1.15833,-3.00068 l 2.35781,-3.06098 -3.63509,1.31015 a 10.31516,10.31516 0 0 0 -2.50317,-2.01953 l 0.51144,-3.829627 -2.49245,2.951697 a 10.31516,10.31516 0 0 0 -3.16417,-0.49754 10.31516,10.31516 0 0 0 -0.0146,7.6e-4 l -1.47179,-3.572357 -0.6834,3.806657 a 10.31516,10.31516 0 0 0 -3.00007,1.1545 l -3.06077,-2.357597 1.31137,3.638097 a 10.31516,10.31516 0 0 0 -0.0809,0.0789 72.417407,72.417407 0 0 0 -32.318873,-19.189444 z m 39.318912,18.717922 a 8.037615,8.037615 0 0 1 8.03764,8.03763 8.037615,8.037615 0 0 1 -4.06912,6.98837 72.417407,72.417407 0 0 0 -9.40666,-12.89418 8.037615,8.037615 0 0 1 5.43814,-2.13182 z" /><path
       id="text96078"
       style="font-style:normal;font-variant:normal;font-weight:normal;font-stretch:normal;font-size:27.2968px;font-family:'SF Pro';-inkscape-font-specification:'SF Pro';fill:url(#linearGradient132538);fill-opacity:1;stroke:#f9f9f9;stroke-width:0.1;stroke-dasharray:none;stroke-opacity:1"
       d="m 31.001081,100.83085 v 19.23294 h 11.915552 v -2.15904 h -9.516732 v -6.61097 h 9.023739 v -2.13268 h -9.023739 v -6.1712 h 9.516732 v -2.15905 z m 15.074532,0 v 19.23294 h 2.23914 v -14.86111 h 0.08061 l 6.143811,14.86111 h 2.025717 l 6.143811,-14.86111 h 0.08062 v 14.86111 h 2.23914 v -19.23294 h -2.771924 l -6.66471,16.20728 h -0.07958 l -6.664193,-16.20728 z m 28.309383,0 -7.157185,19.23294 h 2.519226 l 1.951302,-5.50457 h 7.737512 l 1.946651,5.50457 h 2.519226 l -7.144267,-19.23294 h -0.599446 -0.559656 z m 10.130131,0 6.477641,9.51622 v 0.0579 l -6.557739,9.65884 h 2.718697 l 5.190381,-7.67705 h 0.07441 l 5.118554,7.67705 h 2.878899 l -6.504521,-9.54205 v -0.0543 l 6.650771,-9.63663 h -2.732149 l -5.198647,7.74372 h -0.07958 l -5.144905,-7.74372 z m 18.513083,0 v 19.23294 h 1.19941 1.19993 4.86482 c 1.36839,0 2.53667,-0.21324 3.50521,-0.63975 0.96854,-0.4354 1.71034,-1.05289 2.22571,-1.85261 0.52425,-0.80859 0.78651,-1.77728 0.78651,-2.90576 v -0.0264 c 0,-0.85302 -0.17736,-1.61302 -0.53278,-2.27944 -0.35543,-0.67531 -0.86682,-1.2261 -1.53324,-1.65262 -0.66643,-0.42651 -1.46128,-0.69332 -2.38539,-0.79995 v -0.0532 c 0.66643,-0.0977 1.26169,-0.35091 1.78594,-0.75965 0.52426,-0.41762 0.93709,-0.9285 1.2392,-1.53272 0.30212,-0.60423 0.4532,-1.2394 0.4532,-1.90583 v -0.0269 c 0,-0.95965 -0.23092,-1.79949 -0.69298,-2.51923 -0.46205,-0.71973 -1.10633,-1.27962 -1.93269,-1.67948 -0.82637,-0.39985 -1.79051,-0.59945 -2.89233,-0.59945 h -4.89118 -1.19993 z m 38.89272,0 v 12.48865 c 0,1.39505 0.30621,2.626 0.91932,3.69228 0.61312,1.0574 1.48884,1.88358 2.6262,2.47892 1.14625,0.59534 2.51464,0.89297 4.10518,0.89297 1.59053,0 2.95437,-0.29763 4.09174,-0.89297 1.13736,-0.59534 2.00801,-1.42152 2.61224,-2.47892 0.61311,-1.06628 0.91984,-2.29723 0.91984,-3.69228 v -12.48865 h -2.39934 v 12.32897 c 0,0.98631 -0.20414,1.85696 -0.61288,2.61224 -0.40874,0.7464 -1.004,1.33255 -1.78594,1.75907 -0.77305,0.42651 -1.71495,0.63975 -2.82566,0.63975 -1.11071,0 -2.05717,-0.21324 -2.83911,-0.63975 -0.78194,-0.42652 -1.38174,-1.01267 -1.79937,-1.75907 -0.40874,-0.75528 -0.6134,-1.62593 -0.6134,-2.61224 v -12.32897 z m 19.00659,0 v 19.23294 h 2.37247 V 104.8828 h 0.0708 l 10.57869,15.18099 h 2.33215 v -19.23294 h -2.37246 v 15.18099 h -0.0708 l -10.57868,-15.18099 z m 19.08618,0 v 19.23294 h 6.4642 c 1.91042,0 3.54107,-0.37746 4.89169,-1.13275 1.35062,-0.76416 2.38602,-1.86626 3.10576,-3.30574 0.71973,-1.43948 1.07952,-3.16765 1.07952,-5.1847 v -0.0269 c 0,-2.01704 -0.36434,-3.73612 -1.09296,-5.15782 -0.71974,-1.4306 -1.75513,-2.52359 -3.10575,-3.27887 -1.35063,-0.76417 -2.97673,-1.14619 -4.87826,-1.14619 z m -74.58615,2.11925 h 4.34496 c 1.16402,0 2.06146,0.25317 2.69234,0.75965 0.63088,0.4976 0.94619,1.22171 0.94619,2.17248 v 0.0269 c 0,1.03962 -0.37746,1.83447 -1.13274,2.38538 -0.7464,0.55091 -1.8303,0.82682 -3.252,0.82682 h -3.59875 z m 76.98548,0.0398 h 3.90519 c 1.45725,0 2.68768,0.28904 3.69177,0.86661 1.01296,0.56868 1.78154,1.408 2.3058,2.51871 0.52425,1.11071 0.78651,2.46596 0.78651,4.06538 v 0.0269 c 0,1.59053 -0.26226,2.94072 -0.78651,4.05143 -0.52426,1.10182 -1.29284,1.94166 -2.3058,2.51922 -1.00409,0.57757 -2.23452,0.86662 -3.69177,0.86662 h -3.90519 z m -106.868414,0.71985 h 0.05374 l 3.116089,8.81031 h -6.293156 z m 29.882934,7.47706 h 4.27829 c 1.02185,0 1.87482,0.12482 2.55902,0.37362 0.69308,0.2488 1.21305,0.62172 1.55959,1.11931 0.34655,0.4976 0.51987,1.11964 0.51987,1.86604 v 0.0269 c 0,1.10182 -0.37798,1.94114 -1.13326,2.51871 -0.7464,0.56868 -1.8394,0.85318 -3.27887,0.85318 h -4.50464 z" /><path
       id="path15226"
       style="fill:url(#linearGradient15289);fill-opacity:1;stroke:#f8ec5b;stroke-width:0.1507;stroke-dasharray:none;stroke-opacity:1"
       d="m 88.30246,84.012806 1.458307,2.671277 a 79.987524,79.987524 0 0 1 50.161273,53.949397 72.417407,72.417407 0 0 0 -7.23106,-20.88664 10.31516,10.31516 0 0 0 0.0999,-0.0528 l 3.06077,2.3576 -1.31137,-3.6381 a 10.31516,10.31516 0 0 0 2.02096,-2.50013 l 3.82944,0.51143 -2.95473,-2.4951 a 10.31516,10.31516 0 0 0 0.50055,-3.16155 10.31516,10.31516 0 0 0 -2e-4,-0.0146 l 3.57179,-1.47183 -3.80282,-0.68258 a 10.31516,10.31516 0 0 0 -1.15833,-3.00068 l 2.35781,-3.06098 -3.63509,1.31015 a 10.31516,10.31516 0 0 0 -2.50317,-2.01953 l 0.51144,-3.829633 -2.49245,2.951703 a 10.31516,10.31516 0 0 0 -3.16417,-0.49754 10.31516,10.31516 0 0 0 -0.0146,7.6e-4 l -1.47179,-3.572357 -0.6834,3.806657 a 10.31516,10.31516 0 0 0 -3.00007,1.1545 l -3.06077,-2.357596 1.31137,3.638096 a 10.31516,10.31516 0 0 0 -0.0809,0.0789 72.417407,72.417407 0 0 0 -32.318881,-19.189426 z m 39.31892,18.717924 a 8.037615,8.037615 0 0 1 8.03764,8.03763 8.037615,8.037615 0 0 1 -4.06912,6.98837 72.417407,72.417407 0 0 0 -9.40666,-12.89418 8.037615,8.037615 0 0 1 5.43814,-2.13182 z" /></g></svg>
